<svg width="70" height="24" viewBox="0 0 70 24" fill="none" xmlns="http://www.w3.org/2000/svg">
<g opacity="0.4">
<path d="M13.6996 4.79983H16.7903V12.9302H18.7465V4.79983H21.8299V3.0545H13.6996V4.79983Z" fill="white" fill-opacity="0.9"/>
<path d="M26.2049 12.9302H33.3389V11.2357H28.1684V8.73411H32.5608V7.03241H28.1684V4.7562H33.2299V3.0545H26.2049V12.9302Z" fill="white" fill-opacity="0.9"/>
<path d="M42.339 13.0756C45.3643 13.0756 47.1533 10.8794 47.1533 8.34141C47.1533 8.09415 47.146 7.80326 47.1169 7.54873H42.1427V9.24316H45.1316C44.9061 10.2904 43.9826 11.2576 42.339 11.2576C40.5428 11.2576 39.2338 9.91221 39.2338 7.99234C39.2338 6.07975 40.4919 4.72711 42.2881 4.72711C43.2917 4.72711 44.2953 5.17072 45.0661 6.33427L46.6151 5.2289C45.5752 3.72355 43.9971 2.90906 42.2881 2.90906C39.4011 2.90906 37.2194 5.10527 37.2194 7.99234C37.2194 10.8794 39.4592 13.0756 42.339 13.0756Z" fill="white" fill-opacity="0.9"/>
<path d="M53.8481 3.0545H51.8846V12.9302H53.8481V3.0545Z" fill="white" fill-opacity="0.9"/>
<path d="M59.2993 12.9302H61.2628V6.87242L63.9244 12.2684H65.1971L67.8587 6.87242V12.9302H69.8222V3.0545H67.7424L64.5644 9.62859L61.3792 3.0545H59.2993V12.9302Z" fill="white" fill-opacity="0.9"/>
<path d="M0 19.3693V23.9328H0.552705V20.2061L3.4594 23.9328H4.03541V19.3693H3.48603V23.1095L0.576011 19.3693H0Z" fill="white" fill-opacity="0.9"/>
<path d="M6.3858 23.9328H6.93518V19.3693H6.3858V23.9328Z" fill="white" fill-opacity="0.9"/>
<path d="M9.2889 23.9328H12.4686V23.4321H9.83827V21.8392H12.0491V21.3352H9.83827V19.8734H12.3987V19.3693H9.2889V23.9328Z" fill="white" fill-opacity="0.9"/>
<path d="M14.5227 19.3693V23.9328H15.0721V22.0778H16.3839L17.446 23.9328H18.0953L16.9766 22.0106C17.5892 21.846 17.9654 21.3789 17.9654 20.7236C17.9654 19.8902 17.3694 19.3693 16.4538 19.3693H14.5227ZM16.4338 19.8734C17.0665 19.8734 17.3927 20.1993 17.3927 20.7236C17.3927 21.2411 17.0665 21.5838 16.4338 21.5838H15.0721V19.8734H16.4338Z" fill="white" fill-opacity="0.9"/>
<path d="M21.8907 24C23.0427 24 23.7819 23.338 23.7819 22.303V19.3693H23.2325V22.2727C23.2325 23.0087 22.7098 23.4791 21.8907 23.4791C21.0716 23.4791 20.5489 23.0087 20.5489 22.2727V19.3693H19.9995V22.303C19.9995 23.338 20.7387 24 21.8907 24Z" fill="white" fill-opacity="0.9"/>
<path d="M25.786 21.6511C25.786 22.9919 26.8215 24 28.1267 24C28.9557 24 29.6816 23.5766 30.1011 22.928L29.6882 22.6289C29.292 23.1969 28.7626 23.4825 28.1267 23.4825C27.1445 23.4825 26.362 22.7062 26.362 21.6511C26.362 20.5992 27.1278 19.823 28.11 19.823C28.7426 19.823 29.2687 20.1288 29.6449 20.69L30.0745 20.3741C29.6283 19.702 28.9224 19.3021 28.11 19.3021C26.8115 19.3021 25.786 20.3069 25.786 21.6511Z" fill="white" fill-opacity="0.9"/>
<path d="M32.5913 23.9328V21.846H35.3082V23.9328H35.8576V19.3693H35.3082V21.3419H32.5913V19.3693H32.042V23.9328H32.5913Z" fill="white" fill-opacity="0.9"/>
<path d="M40.2324 24C41.5509 24 42.5497 23.049 42.5497 21.6511C42.5497 20.2531 41.5509 19.3055 40.2324 19.3055C38.9139 19.3055 37.915 20.2531 37.915 21.6511C37.915 23.049 38.9139 24 40.2324 24ZM38.491 21.6511C38.491 20.5556 39.2202 19.823 40.2324 19.823C41.2446 19.823 41.9737 20.5556 41.9737 21.6511C41.9737 22.7466 41.2446 23.4825 40.2324 23.4825C39.2202 23.4825 38.491 22.7466 38.491 21.6511Z" fill="white" fill-opacity="0.9"/>
<path d="M44.6071 23.9328H45.1565V20.2666L46.7913 23.5968H47.1909L48.8257 20.2666V23.9328H49.375V19.3693H48.6725L46.9911 22.844L45.3097 19.3693H44.6071V23.9328Z" fill="white" fill-opacity="0.9"/>
<path d="M53.7498 24C55.0683 24 56.0672 23.049 56.0672 21.6511C56.0672 20.2531 55.0683 19.3055 53.7498 19.3055C52.4313 19.3055 51.4324 20.2531 51.4324 21.6511C51.4324 23.049 52.4313 24 53.7498 24ZM52.0084 21.6511C52.0084 20.5556 52.7376 19.823 53.7498 19.823C54.762 19.823 55.4911 20.5556 55.4911 21.6511C55.4911 22.7466 54.762 23.4825 53.7498 23.4825C52.7376 23.4825 52.0084 22.7466 52.0084 21.6511Z" fill="white" fill-opacity="0.9"/>
<path d="M59.3598 18.9829H59.8226L60.4486 17.8605H59.8493L59.3598 18.9829ZM57.8449 23.0154C58.0979 23.5564 58.7172 24 59.5829 24C60.5152 24 61.1977 23.4892 61.1977 22.7734C61.1977 21.9468 60.5185 21.641 59.6695 21.3486C58.9836 21.1134 58.5874 20.9554 58.5874 20.5119C58.5874 20.0448 59.0202 19.8095 59.493 19.8095C60.1189 19.8095 60.4752 20.2161 60.645 20.4883L61.0745 20.1725C60.8548 19.7961 60.3653 19.3021 59.493 19.3021C58.7805 19.3021 58.0147 19.7054 58.0147 20.5186C58.0147 21.2915 58.6573 21.5973 59.4963 21.8829C60.2488 22.1383 60.625 22.3299 60.625 22.7802C60.625 23.2036 60.1922 23.4959 59.5829 23.4959C58.917 23.4959 58.4908 23.1397 58.2577 22.7163L57.8449 23.0154Z" fill="white" fill-opacity="0.9"/>
<path d="M62.9621 21.6511C62.9621 22.9919 63.9976 24 65.3028 24C66.1318 24 66.8577 23.5766 67.2772 22.928L66.8643 22.6289C66.4681 23.1969 65.9387 23.4825 65.3028 23.4825C64.3206 23.4825 63.5381 22.7062 63.5381 21.6511C63.5381 20.5992 64.3039 19.823 65.2861 19.823C65.9187 19.823 66.4448 20.1288 66.8211 20.69L67.2506 20.3741C66.8044 19.702 66.0985 19.3021 65.2861 19.3021C63.9876 19.3021 62.9621 20.3069 62.9621 21.6511Z" fill="white" fill-opacity="0.9"/>
<path d="M69.2181 23.9328H69.7674V19.3693H69.2181V23.9328Z" fill="white" fill-opacity="0.9"/>
<g clip-path="url(#clip0_24_346)">
<path d="M7.73692 14.5151L5.8027 14.5151L5.8027 5.80606L3.86848 3.87071L3.41631e-05 3.87071L3.43323e-05 -4.22738e-07L3.86848 -2.53643e-07L9.67114 5.80606L9.67114 12.5798L7.73692 14.5151Z" fill="white" fill-opacity="0.9"/>
<path d="M3.86853 7.52634L3.86853 14.5151L8.66421e-05 14.5151L8.70228e-05 5.80603L2.14922 5.80603C3.09807 5.80603 3.86853 6.57695 3.86853 7.52634Z" fill="white" fill-opacity="0.9"/>
</g>
</g>
<defs>
<clipPath id="clip0_24_346">
<rect width="14.5151" height="13.5396" fill="white" transform="translate(13.5396) rotate(90)"/>
</clipPath>
</defs>
</svg>
